<svg width="16" height="16" viewBox="0 0 16 16" fill="none" xmlns="http://www.w3.org/2000/svg">
<path d="M0 2C0 0.895431 0.895431 0 2 0H16V16H2C0.895431 16 0 15.1046 0 14V2Z" fill="none"/>
<path fill-rule="evenodd" clip-rule="evenodd" d="M7.12037 11.8254C7.30008 12.0351 7.61573 12.0593 7.8254 11.8796C8.03506 11.6999 8.05934 11.3843 7.87963 11.1746L5.15854 8.00001L7.87963 4.8254C8.05934 4.61574 8.03506 4.30009 7.8254 4.12038C7.61573 3.94067 7.30008 3.96495 7.12037 4.17461L4.12037 7.67461C3.95988 7.86186 3.95988 8.13816 4.12037 8.3254L7.12037 11.8254ZM11.1204 11.8254C11.3001 12.0351 11.6157 12.0593 11.8254 11.8796C12.0351 11.6999 12.0593 11.3843 11.8796 11.1746L9.15854 8.00001L11.8796 4.8254C12.0593 4.61574 12.0351 4.30009 11.8254 4.12038C11.6157 3.94067 11.3001 3.96495 11.1204 4.17461L8.12037 7.67461C7.95988 7.86186 7.95988 8.13816 8.12037 8.3254L11.1204 11.8254Z" fill="#7D7D7D"/>
</svg>
