<svg width="16" height="16" viewBox="0 0 16 16" fill="none" xmlns="http://www.w3.org/2000/svg">
<path fill-rule="evenodd" clip-rule="evenodd" d="M2.5 1C1.67157 1 1 1.67157 1 2.5V10.5C1 11.3284 1.67157 12 2.5 12H6.64837L4.1746 14.1204C3.96494 14.3001 3.94066 14.6157 4.12037 14.8254C4.30008 15.0351 4.61573 15.0593 4.8254 14.8796L7.5 12.5871V14.5C7.5 14.7761 7.72386 15 8 15C8.27614 15 8.5 14.7761 8.5 14.5V12.5871L11.1746 14.8796C11.3843 15.0593 11.6999 15.0351 11.8796 14.8254C12.0593 14.6157 12.0351 14.3001 11.8254 14.1204L9.35163 12H13.5C14.3284 12 15 11.3284 15 10.5V2.5C15 1.67157 14.3284 1 13.5 1H2.5ZM8 11H13.5C13.7761 11 14 10.7761 14 10.5V2.5C14 2.22386 13.7761 2 13.5 2H2.5C2.22386 2 2 2.22386 2 2.5V10.5C2 10.7761 2.22386 11 2.5 11H8ZM11.9341 4.74807C12.0711 4.50831 11.9878 4.20288 11.7481 4.06588C11.5083 3.92887 11.2029 4.01217 11.0659 4.25193L9.71545 6.61518C9.55188 6.90143 9.1609 6.95379 8.92777 6.72067L7.77933 5.57223C7.07996 4.87286 5.90702 5.02993 5.41631 5.88868L4.06588 8.25193C3.92887 8.49169 4.01217 8.79712 4.25193 8.93412C4.49169 9.07113 4.79712 8.98783 4.93412 8.74807L6.28455 6.38482C6.44812 6.09857 6.8391 6.04621 7.07223 6.27933L8.22067 7.42777C8.92004 8.12714 10.093 7.97007 10.5837 7.11132L11.9341 4.74807Z" fill="#7D7D7D"/>
</svg>
