<svg width="16" height="16" viewBox="0 0 16 16" fill="none" xmlns="http://www.w3.org/2000/svg">
<path d="M0 2C0 0.895431 0.895431 0 2 0H16V16H2C0.895431 16 0 15.1046 0 14V2Z" fill="none"/>
<path fill-rule="evenodd" clip-rule="evenodd" d="M8.87963 4.1746C8.69992 3.96493 8.38427 3.94065 8.17461 4.12036C7.96494 4.30007 7.94066 4.61572 8.12037 4.82539L10.8415 7.99999L8.12037 11.1746C7.94066 11.3843 7.96494 11.6999 8.1746 11.8796C8.38427 12.0593 8.69992 12.035 8.87963 11.8254L11.8796 8.32539C12.0401 8.13814 12.0401 7.86184 11.8796 7.6746L8.87963 4.1746ZM4.87963 4.17459C4.69992 3.96493 4.38427 3.94065 4.17461 4.12036C3.96494 4.30007 3.94066 4.61572 4.12037 4.82539L6.84146 7.99999L4.12037 11.1746C3.94066 11.3843 3.96494 11.6999 4.1746 11.8796C4.38427 12.0593 4.69992 12.035 4.87963 11.8254L7.87963 8.32539C8.04012 8.13814 8.04012 7.86184 7.87963 7.6746L4.87963 4.17459Z" fill="#7D7D7D"/>
</svg>
