<svg width="16" height="16" viewBox="0 0 16 16" fill="none" xmlns="http://www.w3.org/2000/svg">
<path fill-rule="evenodd" clip-rule="evenodd" d="M4 4.57143C4 4.27283 4.07634 3.99206 4.21057 3.74758L5.037 1.6356C5.18701 1.25226 5.55659 1 5.96824 1H10.2591C10.6992 1 11.0876 1.28777 11.2157 1.70884L11.9607 4.1566C11.9667 4.17641 11.9676 4.19735 11.9685 4.21831C11.9692 4.23376 11.9698 4.24924 11.9726 4.26425C11.9906 4.36391 12 4.46657 12 4.57143C12 5.26328 11.5902 5.85941 11 6.13027V6.5C11 7.32843 10.3284 8 9.5 8H8.5V9H12.9C13.2314 9 13.5 9.26863 13.5 9.6V11H14C14.5523 11 15 11.4477 15 12V14C15 14.5523 14.5523 15 14 15H12C11.4477 15 11 14.5523 11 14V12C11 11.4477 11.4477 11 12 11H12.5V10H8.5V11H9C9.55228 11 10 11.4477 10 12V14C10 14.5523 9.55228 15 9 15H7C6.44772 15 6 14.5523 6 14V12C6 11.4477 6.44772 11 7 11H7.5V10H3.5V11H4C4.55228 11 5 11.4477 5 12V14C5 14.5523 4.55228 15 4 15H2C1.44772 15 1 14.5523 1 14V12C1 11.4477 1.44772 11 2 11H2.5V9.6C2.5 9.26863 2.76863 9 3.1 9H7.5V8H6.5C5.67157 8 5 7.32843 5 6.5V6.13027C4.40985 5.85941 4 5.26328 4 4.57143ZM5.08714 4.22885L5.11826 4.17218L5.96824 2L10.2591 2L10.9762 4.35637L10.9767 4.36066C10.9792 4.38377 10.9829 4.41138 10.9885 4.44227C10.996 4.48346 11 4.52655 11 4.57143C11 4.96592 10.6802 5.28571 10.2857 5.28571C10.2469 5.28571 10.2095 5.28271 10.1735 5.2771C9.46783 5.16703 8.64541 5.2177 8.04843 5.2831C8.03286 5.2848 8.01672 5.28571 8 5.28571C7.98328 5.28571 7.96714 5.2848 7.95157 5.2831C7.35459 5.2177 6.53217 5.16703 5.82649 5.2771C5.79051 5.28271 5.75309 5.28571 5.71429 5.28571C5.3198 5.28571 5 4.96592 5 4.57143C5 4.44529 5.03184 4.32958 5.08714 4.22885ZM6 6.26218V6.5C6 6.77614 6.22386 7 6.5 7H9.5C9.77614 7 10 6.77614 10 6.5V6.26218C9.43181 6.17688 8.72576 6.21488 8.15733 6.27715C8.10566 6.28281 8.05317 6.28571 8 6.28571C7.94683 6.28571 7.89434 6.28281 7.84267 6.27715C7.27424 6.21488 6.56819 6.17688 6 6.26218ZM4 12H2V14H4V12ZM7 14V12H9V14H7ZM14 12H12V14H14V12Z" fill="#707070"/>
</svg>
