<svg width="16" height="16" viewBox="0 0 16 16" fill="none" xmlns="http://www.w3.org/2000/svg">
<path fill-rule="evenodd" clip-rule="evenodd" d="M8.07997 1C7.21756 1 6.51844 1.69912 6.51844 2.56153V3.03126C4.85551 3.66099 3.67326 5.26843 3.67326 7.15201V7.96393C2.63746 9.04276 2 10.509 2 12.1233C2 12.4603 2.27316 12.7334 2.61013 12.7334H5.39345C5.62805 14.003 6.73786 14.9795 8.07906 14.9795C9.42027 14.9795 10.5301 14.003 10.7647 12.7334H13.5465C13.8835 12.7334 14.1567 12.4603 14.1567 12.1233C14.1567 10.5087 13.519 9.0423 12.4829 7.96343V7.15201C12.4829 5.26985 11.3024 3.66342 9.6415 3.03269V2.56153C9.6415 1.69912 8.94238 1 8.07997 1ZM8.6415 2.60255V2.56153C8.6415 2.2514 8.3901 2 8.07997 2C7.76985 2 7.51844 2.2514 7.51844 2.56153V2.60255H8.6415ZM6.42064 12.7334H9.73748C9.52276 13.4522 8.85869 13.9795 8.07906 13.9795C7.29943 13.9795 6.63536 13.4522 6.42064 12.7334ZM13.1417 11.7334C13.0452 10.479 12.4866 9.35453 11.6349 8.5287C11.5377 8.43452 11.4829 8.30501 11.4829 8.16972V7.15201C11.4829 5.27157 9.95853 3.74717 8.07809 3.74717C6.19765 3.74717 4.67326 5.27157 4.67326 7.15201V8.17019C4.67326 8.30546 4.61845 8.43495 4.52135 8.52912C3.66984 9.35492 3.11147 10.4792 3.01494 11.7334H5.82548C5.83285 11.7331 5.84027 11.7329 5.84773 11.7329L13.1417 11.7334Z" fill="#707070"/>
</svg>
