<svg width="16" height="16" viewBox="0 0 16 16" fill="none" xmlns="http://www.w3.org/2000/svg">
<path fill-rule="evenodd" clip-rule="evenodd" d="M5.43247 4.90015C4.04603 4.90015 2.92211 6.02407 2.92211 7.41051C2.92211 8.21606 3.30153 8.93299 3.89142 9.39234C2.49843 9.89287 1.4198 11.0526 1.03175 12.4954C0.859611 13.1354 1.41298 13.682 2.07572 13.682H8.78936C9.4521 13.682 10.0055 13.1354 9.83333 12.4954C9.44527 11.0526 8.3666 9.89281 6.97356 9.39231C7.56342 8.93296 7.94283 8.21604 7.94283 7.41051C7.94283 6.02407 6.8189 4.90015 5.43247 4.90015ZM3.92211 7.41051C3.92211 6.57636 4.59832 5.90015 5.43247 5.90015C6.26662 5.90015 6.94283 6.57636 6.94283 7.41051C6.94283 8.24466 6.26662 8.92087 5.43247 8.92087C4.59832 8.92087 3.92211 8.24466 3.92211 7.41051ZM2.07572 12.682C2.05496 12.682 2.03626 12.6788 2.02031 12.6739C2.45486 11.1998 3.81943 10.1251 5.43254 10.1251C7.04565 10.1251 8.41022 11.1998 8.84477 12.6739C8.82882 12.6788 8.81012 12.682 8.78936 12.682H2.07572Z" fill="#707070"/>
<path d="M11.8841 5.51991C12.3928 5.38937 12.7687 4.92781 12.7687 4.37844C12.7687 3.72763 12.2411 3.20005 11.5903 3.20005C11.441 3.20005 11.2982 3.22782 11.1667 3.27848C10.9513 3.03467 10.6956 2.82748 10.4101 2.66739C10.7454 2.43573 11.152 2.30005 11.5903 2.30005C12.7382 2.30005 13.6687 3.23058 13.6687 4.37844C13.6687 5.03512 13.3642 5.62067 12.8886 6.00155C13.9927 6.41648 14.8453 7.34533 15.155 8.49667C15.2944 9.01506 14.8462 9.45779 14.3094 9.45779H13.3652C13.187 9.13577 12.981 8.83297 12.7473 8.55779H14.2334C13.8589 7.45742 12.8159 6.66677 11.5904 6.66677L11.5613 6.66692C11.7557 6.33772 11.8541 5.9626 11.8841 5.51991Z" fill="#707070"/>
<path d="M8.9892 3.39185C8.07284 3.39185 7.28115 3.92557 6.90802 4.69911C7.21815 4.88074 7.49183 5.11788 7.71541 5.39688C7.85259 4.82051 8.37083 4.39185 8.9892 4.39185C9.71232 4.39185 10.2985 4.97805 10.2985 5.70117C10.2985 6.42429 9.71232 7.0105 8.9892 7.0105C8.74905 7.0105 8.524 6.94584 8.33051 6.833C8.34761 6.9609 8.35643 7.09141 8.35643 7.22399C8.35643 7.62935 8.27394 8.01546 8.12483 8.36642C8.39929 8.2869 8.68937 8.24429 8.98929 8.24429C10.351 8.24429 11.5099 9.12279 11.926 10.3454H9.72341C9.97406 10.653 10.1923 10.9881 10.3729 11.3454H12.0104C12.6069 11.3454 13.1049 10.8535 12.95 10.2775C12.6059 8.99808 11.6583 7.96592 10.4313 7.50498C10.96 7.08178 11.2985 6.43102 11.2985 5.70117C11.2985 4.42577 10.2646 3.39185 8.9892 3.39185Z" fill="#707070"/>
</svg>
