<svg width="16" height="16" viewBox="0 0 16 16" fill="none" xmlns="http://www.w3.org/2000/svg">
<path d="M13.4187 9.27345C13.5697 9.04225 13.5047 8.73241 13.2735 8.58142C13.0422 8.43043 12.7324 8.49546 12.5814 8.72666L11.7533 9.99475L10.7321 9.10118C10.3661 8.78093 9.80137 8.85862 9.53545 9.26581L8.58142 10.7267C8.43043 10.9579 8.49546 11.2677 8.72666 11.4187C8.95787 11.5697 9.2677 11.5047 9.41869 11.2735L10.2468 10.0054L11.268 10.8989C11.634 11.2192 12.1987 11.1415 12.4647 10.7343L13.4187 9.27345Z" fill="#707070"/>
<path fill-rule="evenodd" clip-rule="evenodd" d="M4 15C3.17157 15 2.5 14.3284 2.5 13.5V11.0987C1.6033 10.5799 1 9.61042 1 8.5C1 7.95536 1.14514 7.44461 1.39884 7.00433L2.80204 1.74234C2.91878 1.30458 3.31523 1 3.76828 1H12.2317C12.6848 1 13.0812 1.30458 13.198 1.74234L14.6012 7.00433C14.6701 7.12399 14.731 7.24886 14.7832 7.3782C14.9189 7.5489 15 7.76498 15 8V14C15 14.5523 14.5523 15 14 15H4ZM2.26529 7.50361C2.30898 7.42779 2.34253 7.34656 2.36508 7.262L3.76828 2L12.2317 2L13.5651 7H8C7.44772 7 7 7.44772 7 8V10.2327C6.88074 10.1636 6.7692 10.0825 6.66692 9.99097C6.28724 9.65115 5.71277 9.65115 5.33309 9.99097C4.97859 10.3083 4.51288 10.5 4 10.5C2.89543 10.5 2 9.60457 2 8.5C2 8.13524 2.09674 7.7961 2.26529 7.50361ZM7 11.3293C6.62738 11.1976 6.28855 10.9944 6 10.7361C5.46925 11.2111 4.76836 11.5 4 11.5C3.82964 11.5 3.6626 11.4858 3.5 11.4585V13.5C3.5 13.7761 3.72386 14 4 14H7V11.3293ZM8 8H14V14H13V12.5C13 12.2239 12.7761 12 12.5 12C12.2239 12 12 12.2239 12 12.5V14H11.5V12C11.5 11.7239 11.2761 11.5 11 11.5C10.7239 11.5 10.5 11.7239 10.5 12V14H10V13C10 12.7239 9.77614 12.5 9.5 12.5C9.22386 12.5 9 12.7239 9 13V14H8V8Z" fill="#707070"/>
</svg>
