<svg width="1024" height="1024" viewBox="0 0 1024 1024" fill="none" xmlns="http://www.w3.org/2000/svg">
<g clip-path="url(#clip0_2034_3199)">
<path d="M0 204.8C0 91.692 91.692 0 204.8 0H819.2C932.308 0 1024 91.692 1024 204.8V819.2C1024 932.308 932.308 1024 819.2 1024H204.8C91.692 1024 0 932.308 0 819.2V204.8Z" fill="#FDD000"/>
<path fill-rule="evenodd" clip-rule="evenodd" d="M187.094 296.998V134.31H247.254V149.312C248.147 148.266 249.096 147.255 250.1 146.278C260.764 135.923 275.718 131.622 292.786 131.622C309.719 131.622 324.797 135.061 335.474 145.276C345.125 154.51 349.073 167.236 349.807 181.474C360.399 168.949 375.835 164.838 393.03 164.838C406.986 164.838 420.433 167.625 430.62 176.791V167.526H486.9C491.08 165.776 495.639 164.838 500.444 164.838H518.812V167.526H591.907V134.31H652.067V181.522C653.07 180.341 654.13 179.219 655.247 178.155C667.406 166.589 683.434 164.838 697.023 164.838C714.825 164.838 729.059 170.003 738.273 181.687C739.235 182.907 740.116 184.167 740.925 185.464C741.734 184.257 742.598 183.093 743.519 181.972C754.12 169.058 769.734 164.838 787.155 164.838C802.601 164.838 817.423 168.252 827.894 179.948C838.015 191.257 841.619 207.664 841.619 227.558V250.918H840.563C839.923 264.1 836.297 276.498 827.208 285.719C817.366 295.705 803.378 299.686 787.155 299.686C768.867 299.686 752.945 295.603 742.504 282.388C741.784 281.478 741.103 280.539 740.461 279.572C739.343 281.29 738.092 282.932 736.692 284.491C726.497 295.851 711.392 299.686 695.295 299.686C681.321 299.686 665.727 297.707 654.095 286.465C653.394 285.788 652.718 285.088 652.067 284.363V296.998H591.907V260.903L583.1 296.998H522.273L504.255 222.587L503.653 222.474C501.49 222.068 499.606 221.926 497.372 221.926C493.093 221.926 491.724 222.715 491.526 222.843C491.314 223.182 490.78 224.402 490.78 227.558V296.998H430.62V288.02C420.968 296.322 407.944 299.686 393.03 299.686C374.742 299.686 358.819 295.603 348.379 282.388C347.087 280.754 345.923 279.028 344.873 277.217C342.589 280.632 339.827 283.741 336.55 286.501C325.065 296.172 309.399 299.686 292.21 299.686C276.425 299.686 261.405 297.062 250.214 288.343C249.175 287.532 248.189 286.686 247.254 285.806V296.998H187.094ZM234.454 180.326H199.894V284.198H234.454V180.326ZM247.254 222.377V230.694H256.838C253.489 228.413 250.209 225.689 247.254 222.377ZM286.23 230.694C288.823 231.791 291.279 232.908 293.49 234.145C299.662 237.598 303.922 241.982 303.922 249.446C303.922 256.934 299.698 262.694 292.402 262.694C285.49 262.694 280.69 258.47 280.69 246.758V243.494H246.13V248.294C246.13 251.141 246.295 253.804 246.624 256.294C246.792 257.566 247.002 258.794 247.254 259.977C251.43 279.558 267.119 286.886 292.21 286.886C317.224 286.886 333.149 278.647 338.642 260.629C340.063 255.965 340.786 250.647 340.786 244.646C340.786 240.042 340.293 235.973 339.398 232.358C338.63 229.258 337.568 226.492 336.266 224.009C329.563 211.228 316.531 205.962 304.968 201.29C303.447 200.676 301.952 200.071 300.499 199.462C296.97 197.98 293.696 196.466 290.93 194.693C285.797 191.403 282.418 187.224 282.418 180.71C282.418 174.566 285.874 168.614 293.554 168.614C300.466 168.614 303.73 175.334 303.73 183.398V186.662H337.138C337.138 181.981 336.801 177.719 336.11 173.862C332.462 153.513 318.934 144.422 292.786 144.422C262.642 144.422 247.858 159.59 247.858 187.238C247.858 215.05 266.237 222.533 281.949 228.929C283.405 229.522 284.837 230.104 286.23 230.694ZM330.321 199.462C333.134 201.314 335.909 203.457 338.509 205.968C338.996 203.728 339.567 201.557 340.228 199.462H330.321ZM349.242 221.52C348.993 224.907 348.87 228.517 348.87 232.358C348.87 236.752 349.004 240.844 349.285 244.646C349.737 250.734 350.57 256.078 351.854 260.731C356.98 279.317 369.28 286.886 393.03 286.886C413.622 286.886 425.459 279.625 430.62 266.177C431.302 264.398 431.869 262.511 432.323 260.518C432.998 257.55 433.426 254.347 433.62 250.918C433.681 249.872 433.718 248.805 433.734 247.718H402.63C402.63 248.848 402.607 249.915 402.563 250.918C402.034 262.512 398.493 265.766 392.838 265.766C388.038 265.766 383.43 262.886 383.43 251.75V238.118H434.694V227.558C434.694 226.8 434.689 226.054 434.678 225.318C434.514 214.639 433.157 206.094 430.62 199.357C424.631 183.458 412.06 177.638 393.03 177.638C364.932 177.638 351.562 189.859 349.242 221.52ZM443.42 284.198H477.98V227.558C477.98 215.547 483.496 210.392 493.212 209.336C494.523 209.194 495.912 209.126 497.372 209.126C498.61 209.126 499.812 209.161 501.024 209.248C502.633 209.362 504.26 209.565 506.012 209.894V177.638H500.444C498.103 177.638 495.812 177.994 493.626 178.693C493.487 178.738 493.349 178.784 493.212 178.83C491.98 179.252 490.781 179.785 489.628 180.425C484.109 183.492 479.611 189.04 477.212 196.838H476.828V180.326H443.42V284.198ZM491.612 222.735C491.616 222.739 491.593 222.773 491.535 222.828C491.58 222.758 491.61 222.731 491.612 222.735ZM532.343 284.198H573.047L598.391 180.326H562.679L553.079 255.014H552.695L542.903 180.326H507.191L532.343 284.198ZM604.707 284.198H639.267V180.326H604.707V284.198ZM639.267 172.838V147.11H604.707V172.838H639.267ZM652.067 253.725C656.945 281.312 673.266 286.886 695.295 286.886C709.695 286.886 720.447 283.43 727.167 275.942C730.053 272.725 732.16 268.8 733.626 264.074C734.596 260.944 735.283 257.464 735.73 253.606C736.178 249.729 736.383 245.472 736.383 240.806H705.279V247.526C705.279 260.582 701.631 264.614 695.295 264.614C687.423 264.614 685.119 257.894 685.119 232.358C685.119 206.822 687.423 199.91 695.295 199.91C698.943 199.91 701.439 201.062 702.975 204.326C704.511 207.59 705.279 212.582 705.279 221.03H736.383C736.383 216.487 736.117 212.204 735.514 208.23C735.125 205.666 734.596 203.23 733.906 200.937C729.567 186.488 718.886 177.638 697.023 177.638C675.238 177.638 657.252 182.79 652.067 213.611C651.081 219.463 650.559 226.241 650.559 234.086C650.559 241.629 651.077 248.13 652.067 253.725ZM743 233.83C743.018 236.248 743.077 238.572 743.181 240.806C743.607 249.991 744.795 257.619 746.941 263.846C752.567 280.167 764.78 286.886 787.155 286.886C810.47 286.886 822.563 277.577 826.447 260.518C827.123 257.55 827.551 254.347 827.747 250.918C827.805 249.872 827.843 248.805 827.859 247.718H796.755C796.755 248.848 796.732 249.915 796.687 250.918C796.159 262.512 792.618 265.766 786.963 265.766C782.163 265.766 777.555 262.886 777.555 251.75V238.118H828.819V227.558C828.819 226.8 828.814 226.054 828.803 225.318C828.251 189.436 814.248 177.638 787.155 177.638C766.077 177.638 753.286 184.516 747.232 201.319C745.257 206.799 743.999 213.333 743.404 221.03C743.231 223.257 743.113 225.582 743.05 228.006C743.014 229.422 742.995 230.872 742.995 232.358C742.995 232.852 742.998 233.342 743 233.83ZM199.894 172.838H234.454V147.11H199.894V172.838ZM401.76 206.502C400.632 201.227 397.971 198.758 392.838 198.758C387.841 198.758 385.22 201.227 384.104 206.502C383.634 208.725 383.43 211.448 383.43 214.694V219.302H402.438V214.694C402.438 211.448 402.236 208.725 401.76 206.502ZM795.886 206.502C794.758 201.227 792.096 198.758 786.963 198.758C781.967 198.758 779.345 201.227 778.228 206.502C777.759 208.725 777.555 211.448 777.555 214.694V219.302H796.563V214.694C796.563 211.448 796.361 208.725 795.886 206.502Z" fill="black" fill-opacity="0.05"/>
<path d="M199.894 284.198H234.454V180.326H199.894V284.198ZM199.894 172.838H234.454V147.11H199.894V172.838Z" fill="#006AB7"/>
<path d="M337.138 186.663C337.138 157.287 323.89 144.423 292.786 144.423C262.642 144.423 247.858 159.591 247.858 187.239C247.858 235.815 303.922 222.375 303.922 249.447C303.922 256.935 299.698 262.695 292.402 262.695C285.49 262.695 280.69 258.471 280.69 246.759V243.495H246.13V248.295C246.13 276.711 262.642 286.887 292.21 286.887C323.698 286.887 340.786 273.831 340.786 244.647C340.786 194.535 282.418 207.783 282.418 180.711C282.418 174.567 285.874 168.615 293.554 168.615C300.466 168.615 303.73 175.335 303.73 183.399V186.663H337.138Z" fill="#006AB7"/>
<path d="M434.694 238.119V227.559C434.694 189.927 420.678 177.639 393.03 177.639C361.926 177.639 348.87 192.615 348.87 232.359C348.87 271.911 359.622 286.887 393.03 286.887C421.638 286.887 433.35 272.871 433.734 247.719H402.63C402.63 261.927 398.982 265.767 392.838 265.767C388.038 265.767 383.43 262.887 383.43 251.751V238.119H434.694ZM402.438 219.303H383.43V214.695C383.43 203.751 385.734 198.759 392.838 198.759C400.134 198.759 402.438 203.751 402.438 214.695V219.303Z" fill="#006AB7"/>
<path d="M443.42 284.199H477.98V227.559C477.98 213.927 485.084 209.127 497.372 209.127C500.252 209.127 502.94 209.319 506.012 209.895V177.639H500.444C490.268 177.639 481.052 184.359 477.212 196.839H476.828V180.327H443.42V284.199Z" fill="#006AB7"/>
<path d="M532.343 284.198H573.047L598.391 180.326H562.679L553.079 255.014H552.695L542.903 180.326H507.191L532.343 284.198Z" fill="#006AB7"/>
<path d="M604.707 284.198H639.267V180.326H604.707V284.198ZM604.707 172.838H639.267V147.11H604.707V172.838Z" fill="#006AB7"/>
<path d="M736.383 221.031C736.383 195.111 727.743 177.639 697.023 177.639C671.103 177.639 650.559 184.935 650.559 234.087C650.559 278.823 668.799 286.887 695.295 286.887C709.695 286.887 720.447 283.431 727.167 275.943C733.887 268.455 736.383 257.127 736.383 240.807H705.279V247.527C705.279 260.583 701.631 264.615 695.295 264.615C687.423 264.615 685.119 257.895 685.119 232.359C685.119 206.823 687.423 199.911 695.295 199.911C698.943 199.911 701.439 201.063 702.975 204.327C704.511 207.591 705.279 212.583 705.279 221.031H736.383Z" fill="#006AB7"/>
<path d="M828.819 238.119V227.559C828.819 189.927 814.803 177.639 787.155 177.639C756.051 177.639 742.995 192.615 742.995 232.359C742.995 271.911 753.747 286.887 787.155 286.887C815.763 286.887 827.475 272.871 827.859 247.719H796.755C796.755 261.927 793.107 265.767 786.963 265.767C782.163 265.767 777.555 262.887 777.555 251.751V238.119H828.819ZM796.563 219.303H777.555V214.695C777.555 203.751 779.859 198.759 786.963 198.759C794.259 198.759 796.563 203.751 796.563 214.695V219.303Z" fill="#006AB7"/>
<rect width="45" height="171" transform="matrix(1 0 0 -1 404 870)" fill="#006AB7"/>
<rect width="45" height="92" transform="matrix(1 0 0 -1 319 870)" fill="#006AB7"/>
<rect width="45" height="171" transform="matrix(1 0 0 -1 489 870)" fill="#006AB7"/>
<rect width="45" height="341" transform="matrix(1 0 0 -1 659 870)" fill="#006AB7"/>
<rect width="45" height="261" transform="matrix(1 0 0 -1 574 870)" fill="#006AB7"/>
<ellipse cx="413.16" cy="486.72" rx="61.6" ry="60.72" fill="#35CDA8" stroke="#006AB7" stroke-width="30"/>
<path d="M507.32 652.599C507.32 624.709 497.4 597.961 479.741 578.24C462.083 558.519 438.133 547.439 413.16 547.439C388.187 547.439 364.237 558.519 346.579 578.24C328.92 597.961 319 624.709 319 652.599L413.16 652.599H507.32Z" fill="#35CDA8" stroke="#006AB7" stroke-width="30"/>
<path d="M727.046 505.926L733.827 498.576L726.477 491.796L704.427 471.454L697.077 464.673L690.296 472.023L500.701 677.538L461.009 640.38L453.625 633.467L446.797 640.93L270.43 833.69L263.679 841.068L271.057 847.819L293.191 868.07L300.569 874.82L307.319 867.442L456.375 704.532L495.945 741.577L503.299 748.461L510.129 741.057L727.046 505.926Z" fill="#006AB7" stroke="#FDD000" stroke-width="20" stroke-linecap="square"/>
<path fill-rule="evenodd" clip-rule="evenodd" d="M738.151 440.706L648.751 475.903C646.011 476.982 646.304 480.951 649.172 481.617L686.965 490.382L501.221 691.723L454.175 647.68L277.808 840.441L299.941 860.692L455.825 690.319L502.779 734.277L711.584 507.939L731.822 539.898C733.387 542.369 737.201 541.369 737.352 538.448L742.246 443.652C742.359 441.473 740.181 439.907 738.151 440.706Z" fill="#006AB7"/>
</g>
<defs>
<clipPath id="clip0_2034_3199">
<rect width="1024" height="1024" fill="white"/>
</clipPath>
</defs>
</svg>
