<svg width="16" height="16" viewBox="0 0 16 16" fill="none" xmlns="http://www.w3.org/2000/svg">
<path fill-rule="evenodd" clip-rule="evenodd" d="M5 1.5C5 1.22386 5.22386 1 5.5 1H10.5C10.7761 1 11 1.22386 11 1.5V3.5H12.5H14.5C14.7761 3.5 15 3.72386 15 4C15 4.27614 14.7761 4.5 14.5 4.5H13V14.5C13 14.7761 12.7761 15 12.5 15H10H8H6H3.5C3.22386 15 3 14.7761 3 14.5V4.5H1.5C1.22386 4.5 1 4.27614 1 4C1 3.72386 1.22386 3.5 1.5 3.5H3.5H5V1.5ZM10.5 14V6C10.5 5.72386 10.2761 5.5 10 5.5C9.72386 5.5 9.5 5.72386 9.5 6V14H8.5V6C8.5 5.72386 8.27614 5.5 8 5.5C7.72386 5.5 7.5 5.72386 7.5 6V14H6.5V6C6.5 5.72386 6.27614 5.5 6 5.5C5.72386 5.5 5.5 5.72386 5.5 6V14H4V4.5H5.5H10.5H12V14H10.5ZM6 3.5H10V2H6V3.5Z" fill="#006AB7"/>
</svg>
