<svg width="16" height="16" viewBox="0 0 16 16" fill="none" xmlns="http://www.w3.org/2000/svg">
<path fill-rule="evenodd" clip-rule="evenodd" d="M10.8536 1.14645C10.6583 0.951184 10.3417 0.951184 10.1464 1.14645L8.64645 2.64645L1.14645 10.1464C1.05268 10.2402 1 10.3674 1 10.5V14.5C1 14.7761 1.22386 15 1.5 15H5.5C5.63261 15 5.75979 14.9473 5.85355 14.8536L13.3536 7.35355L14.8536 5.85355C15.0488 5.65829 15.0488 5.34171 14.8536 5.14645L10.8536 1.14645ZM13 6.29289L13.7929 5.5L10.5 2.20711L9.70711 3L13 6.29289ZM9 3.70711L12.2929 7L5.29289 14H2V10.7071L9 3.70711Z" fill="#006AB7"/>
</svg>
