<svg width="16" height="16" viewBox="0 0 16 16" fill="none" xmlns="http://www.w3.org/2000/svg">
<path fill-rule="evenodd" clip-rule="evenodd" d="M14 8C14 11.3137 11.3137 14 8 14C4.68629 14 2 11.3137 2 8C2 4.68629 4.68629 2 8 2C11.3137 2 14 4.68629 14 8ZM15 8C15 11.866 11.866 15 8 15C4.13401 15 1 11.866 1 8C1 4.13401 4.13401 1 8 1C11.866 1 15 4.13401 15 8ZM10.9287 5.75725C11.0708 5.52046 10.994 5.21333 10.7572 5.07125C10.5205 4.92918 10.2133 5.00596 10.0713 5.24275L7.40073 9.69362L5.85355 8.14645C5.65829 7.95118 5.34171 7.95118 5.14645 8.14645C4.95118 8.34171 4.95118 8.65829 5.14645 8.85355L7.14645 10.8536C7.25532 10.9624 7.40828 11.0151 7.56109 10.9963C7.71391 10.9774 7.84953 10.8893 7.92875 10.7572L10.9287 5.75725Z" fill="#006AB7"/>
</svg>
