<svg xmlns="http://www.w3.org/2000/svg" width="32" height="32" viewBox="0 0 32 32" fill="none">
  <path d="M18.2071 11.7071C18.5976 11.3166 18.5976 10.6834 18.2071 10.2929C17.8166 9.90237 17.1834 9.90237 16.7929 10.2929L11.7929 15.2929C11.4024 15.6834 11.4024 16.3166 11.7929 16.7071L16.7929 21.7071C17.1834 22.0976 17.8166 22.0976 18.2071 21.7071C18.5976 21.3166 18.5976 20.6834 18.2071 20.2929L13.9142 16L18.2071 11.7071Z" fill="white"/>
  <path fill-rule="evenodd" clip-rule="evenodd" d="M30 16C30 23.732 23.732 30 16 30C8.26801 30 2 23.732 2 16C2 8.26801 8.26801 2 16 2C23.732 2 30 8.26801 30 16ZM28 16C28 22.6274 22.6274 28 16 28C9.37258 28 4 22.6274 4 16C4 9.37258 9.37258 4 16 4C22.6274 4 28 9.37258 28 16Z" fill="white"/>
</svg>