<svg width="18" height="18" viewBox="0 0 18 18" fill="none" xmlns="http://www.w3.org/2000/svg">
<path d="M2.25 4.5C2.25 4.18934 2.50184 3.9375 2.8125 3.9375H15.1875C15.4982 3.9375 15.75 4.18934 15.75 4.5C15.75 4.81066 15.4982 5.0625 15.1875 5.0625L2.8125 5.0625C2.50184 5.0625 2.25 4.81066 2.25 4.5Z" fill="white"/>
<path d="M2.25 9C2.25 8.68934 2.50184 8.4375 2.8125 8.4375L15.1875 8.4375C15.4982 8.4375 15.75 8.68934 15.75 9C15.75 9.31066 15.4982 9.5625 15.1875 9.5625L2.8125 9.5625C2.50184 9.5625 2.25 9.31066 2.25 9Z" fill="white"/>
<path d="M2.8125 12.9375C2.50184 12.9375 2.25 13.1893 2.25 13.5C2.25 13.8107 2.50184 14.0625 2.8125 14.0625L15.1875 14.0625C15.4982 14.0625 15.75 13.8107 15.75 13.5C15.75 13.1893 15.4982 12.9375 15.1875 12.9375L2.8125 12.9375Z" fill="white"/>
</svg>
