<svg width="16" height="16" viewBox="0 0 16 16" fill="none" xmlns="http://www.w3.org/2000/svg">
<path fill-rule="evenodd" clip-rule="evenodd" d="M1.04721 1.28792C1.1295 1.11223 1.306 1 1.50001 1H14.5C14.694 1 14.8705 1.11223 14.9528 1.28792C15.0351 1.46361 15.0083 1.67105 14.8841 1.82009L10 7.68102V11.5C10 11.6326 9.94733 11.7598 9.85356 11.8536L6.85356 14.8536C6.71056 14.9966 6.4955 15.0393 6.30866 14.9619C6.12183 14.8845 6.00001 14.7022 6.00001 14.5V7.68102L1.1159 1.82009C0.991694 1.67105 0.964921 1.46361 1.04721 1.28792ZM2.56753 2L6.88412 7.17991C6.959 7.26977 7.00001 7.38303 7.00001 7.5V13.2929L9.00001 11.2929V7.5C9.00001 7.38303 9.04101 7.26977 9.1159 7.17991L13.4325 2H2.56753Z" fill="#2b2b2b"/>
</svg>
