<svg width="16" height="16" viewBox="0 0 16 16" fill="none" xmlns="http://www.w3.org/2000/svg">
<path fill-rule="evenodd" clip-rule="evenodd" d="M2.5 2C2.22386 2 2 2.22386 2 2.5V13.5C2 13.7761 2.22386 14 2.5 14H11.5C11.7761 14 12 13.7761 12 13.5V12.6632C11.5454 12.8792 11.0368 13 10.5 13C9.30455 13 8.24908 12.4007 7.61768 11.4861C7.57994 11.4952 7.54053 11.5 7.5 11.5H3.5C3.22386 11.5 3 11.2761 3 11C3 10.7239 3.22386 10.5 3.5 10.5H7.14494C7.05064 10.1831 7 9.84749 7 9.5C7 9.15251 7.05064 8.81685 7.14494 8.5H3.5C3.22386 8.5 3 8.27614 3 8C3 7.72386 3.22386 7.5 3.5 7.5H7.5C7.54053 7.5 7.57994 7.50482 7.61768 7.51393C8.24908 6.59934 9.30455 6 10.5 6C11.0368 6 11.5454 6.12085 12 6.33682V2.5C12 2.22386 11.7761 2 11.5 2H2.5ZM13 7.05051V2.5C13 1.67157 12.3284 1 11.5 1H2.5C1.67157 1 1 1.67157 1 2.5V13.5C1 14.3284 1.67157 15 2.5 15H11.5C12.3284 15 13 14.3284 13 13.5V12.7071L14.1464 13.8536C14.3417 14.0488 14.6583 14.0488 14.8536 13.8536C15.0488 13.6583 15.0488 13.3417 14.8536 13.1464L13.3536 11.6464C13.3366 11.6295 13.3188 11.6141 13.3002 11.6001C13.7396 11.0151 14 10.288 14 9.5C14 8.54635 13.6186 7.68178 13 7.05051ZM12 7.49982V7.5H12.0002C12.6073 7.95611 13 8.6822 13 9.5C13 10.8807 11.8807 12 10.5 12C9.11929 12 8 10.8807 8 9.5C8 8.11929 9.11929 7 10.5 7C11.0628 7 11.5822 7.18597 12 7.49982ZM3 5C3 4.72386 3.22386 4.5 3.5 4.5H10.5C10.7761 4.5 11 4.72386 11 5C11 5.27614 10.7761 5.5 10.5 5.5H3.5C3.22386 5.5 3 5.27614 3 5Z" fill="#0B7DC9"/>
</svg>
