<svg width="16" height="16" viewBox="0 0 16 16" fill="none" xmlns="http://www.w3.org/2000/svg">
<path fill-rule="evenodd" clip-rule="evenodd" d="M1.85355 1.14645C1.65829 0.951184 1.34171 0.951184 1.14645 1.14645C0.951184 1.34171 0.951184 1.65829 1.14645 1.85355L3.75016 4.45727C2.65137 5.45608 1.82038 6.59638 1.39532 7.23247C1.08307 7.69976 1.08307 8.30024 1.39532 8.76753C1.82695 9.41346 2.67717 10.5793 3.80134 11.589C4.91536 12.5895 6.36883 13.5 7.99996 13.5C9.29839 13.5 10.4842 12.9231 11.4759 12.183L14.1464 14.8536C14.3417 15.0488 14.6583 15.0488 14.8536 14.8536C15.0488 14.6583 15.0488 14.3417 14.8536 14.1464L12.2498 11.5427C13.3486 10.5439 14.1795 9.40362 14.6046 8.76753C14.9168 8.30024 14.9168 7.69976 14.6046 7.23247C14.173 6.58654 13.3227 5.42069 12.1986 4.41102C11.0846 3.41046 9.63108 2.5 7.99996 2.5C6.70155 2.5 5.51571 3.07691 4.52405 3.81695L1.85355 1.14645ZM4.45814 5.16525C3.42743 6.09371 2.63493 7.17726 2.22677 7.78807C2.13925 7.91905 2.13925 8.08095 2.22677 8.21193C2.63644 8.82499 3.43327 9.91428 4.46954 10.845C5.51595 11.7848 6.73629 12.5 7.99996 12.5C8.96477 12.5 9.90433 12.0831 10.7605 11.4676L9.73825 10.4454C9.24784 10.7946 8.64788 11 7.99996 11C6.3431 11 4.99996 9.65685 4.99996 8C4.99996 7.35207 5.20536 6.75212 5.5546 6.26171L4.45814 5.16525ZM6.26171 5.55461L5.23946 4.53235C6.09562 3.91689 7.03516 3.5 7.99996 3.5C9.26363 3.5 10.484 4.21517 11.5304 5.155C12.5666 6.08572 13.3635 7.17501 13.7731 7.78807C13.8607 7.91905 13.8607 8.08095 13.7731 8.21193C13.365 8.82273 12.5725 9.90626 11.5418 10.8347L10.4453 9.73824C10.7946 9.24784 11 8.6479 11 8C11 6.34315 9.65681 5 7.99996 5C7.35205 5 6.75212 5.20539 6.26171 5.55461ZM6.27688 6.98399C6.10093 7.28175 5.99996 7.62908 5.99996 8C5.99996 9.10457 6.89539 10 7.99996 10C8.37087 10 8.7182 9.89903 9.01597 9.72307L6.27688 6.98399ZM9.72306 9.01595L6.984 6.27689C7.28175 6.10096 7.62906 6 7.99996 6C9.10453 6 9.99996 6.89543 9.99996 8C9.99996 8.37089 9.899 8.7182 9.72306 9.01595Z" fill="#003B65"/>
</svg>
