<svg width="16" height="16" viewBox="0 0 16 16" fill="none" xmlns="http://www.w3.org/2000/svg">
<path fill-rule="evenodd" clip-rule="evenodd" d="M2.22677 7.78807C2.63644 7.17501 3.43327 6.08572 4.46954 5.155C5.51595 4.21517 6.73629 3.5 7.99996 3.5C9.26363 3.5 10.484 4.21517 11.5304 5.155C12.5666 6.08572 13.3635 7.17501 13.7731 7.78807C13.8607 7.91905 13.8607 8.08095 13.7731 8.21193C13.3635 8.82499 12.5666 9.91428 11.5304 10.845C10.484 11.7848 9.26363 12.5 7.99996 12.5C6.73629 12.5 5.51595 11.7848 4.46954 10.845C3.43327 9.91428 2.63644 8.82499 2.22677 8.21193C2.13925 8.08095 2.13925 7.91905 2.22677 7.78807ZM7.99996 2.5C6.36883 2.5 4.91536 3.41046 3.80134 4.41102C2.67717 5.42069 1.82695 6.58654 1.39532 7.23247C1.08307 7.69976 1.08307 8.30024 1.39532 8.76753C1.82695 9.41346 2.67717 10.5793 3.80134 11.589C4.91536 12.5895 6.36883 13.5 7.99996 13.5C9.63108 13.5 11.0846 12.5895 12.1986 11.589C13.3227 10.5793 14.173 9.41346 14.6046 8.76753C14.9168 8.30024 14.9168 7.69976 14.6046 7.23247C14.173 6.58654 13.3227 5.42069 12.1986 4.41102C11.0846 3.41046 9.63108 2.5 7.99996 2.5ZM9.99996 8C9.99996 9.10457 9.10453 10 7.99996 10C6.89539 10 5.99996 9.10457 5.99996 8C5.99996 6.89543 6.89539 6 7.99996 6C9.10453 6 9.99996 6.89543 9.99996 8ZM11 8C11 9.65685 9.65681 11 7.99996 11C6.3431 11 4.99996 9.65685 4.99996 8C4.99996 6.34315 6.3431 5 7.99996 5C9.65681 5 11 6.34315 11 8Z" fill="#2FA8FF"/>
</svg>
