<svg width="16" height="16" viewBox="0 0 16 16" fill="none" xmlns="http://www.w3.org/2000/svg">
<path fill-rule="evenodd" clip-rule="evenodd" d="M8.23705 2.19551C8.08906 2.11582 7.91094 2.11582 7.76295 2.19551L2.26295 5.15704C2.101 5.24425 2 5.41334 2 5.59728V13.5C2 13.7761 2.22386 14 2.5 14H5C5.27614 14 5.5 13.7761 5.5 13.5V11C5.5 10.1716 6.17157 9.49999 7 9.49999H9C9.82843 9.49999 10.5 10.1716 10.5 11V13.5C10.5 13.7761 10.7239 14 11 14H13.5C13.7761 14 14 13.7761 14 13.5V5.59728C14 5.41334 13.899 5.24425 13.7371 5.15704L8.23705 2.19551ZM7.28885 1.31504C7.73281 1.07598 8.26719 1.07598 8.71115 1.31504L14.2112 4.27657C14.697 4.53819 15 5.04546 15 5.59728V13.5C15 14.3284 14.3284 15 13.5 15H11C10.1716 15 9.5 14.3284 9.5 13.5V11C9.5 10.7238 9.27614 10.5 9 10.5H7C6.72386 10.5 6.5 10.7238 6.5 11V13.5C6.5 14.3284 5.82843 15 5 15H2.5C1.67157 15 1 14.3284 1 13.5V5.59728C1 5.04546 1.30299 4.53819 1.78885 4.27657L7.28885 1.31504Z" fill="#7D7D7D"/>
</svg>
